<?xml version="1.0" encoding="UTF-8" standalone="no"?>
<svg
   xmlns:osb="http://www.openswatchbook.org/uri/2009/osb"
   xmlns:dc="http://purl.org/dc/elements/1.1/"
   xmlns:cc="http://creativecommons.org/ns#"
   xmlns:rdf="http://www.w3.org/1999/02/22-rdf-syntax-ns#"
   xmlns:svg="http://www.w3.org/2000/svg"
   xmlns="http://www.w3.org/2000/svg"
   xmlns:sodipodi="http://sodipodi.sourceforge.net/DTD/sodipodi-0.dtd"
   xmlns:inkscape="http://www.inkscape.org/namespaces/inkscape"
   width="48"
   height="48"
   viewBox="0 0 12.7 12.7"
   version="1.1"
   id="svg1522"
   inkscape:version="1.0 (4035a4fb49, 2020-05-01)"
   sodipodi:docname="no_pins.svg">
  <defs
     id="defs1516">
    <linearGradient
       id="linearGradient1479"
       osb:paint="solid">
      <stop
         style="stop-color:#ffffff;stop-opacity:1;"
         offset="0"
         id="stop1477" />
    </linearGradient>
    <linearGradient
       id="linearGradient2170"
       osb:paint="solid"
       gradientTransform="scale(0.26458333)">
      <stop
         style="stop-color:#a64dff;stop-opacity:1;"
         offset="0"
         id="stop2168" />
    </linearGradient>
    <linearGradient
       id="linearGradient2164"
       osb:paint="solid"
       gradientTransform="scale(3.7795276)">
      <stop
         style="stop-color:#4799eb;stop-opacity:1;"
         offset="0"
         id="stop2162" />
    </linearGradient>
    <linearGradient
       id="linearGradient2158"
       osb:paint="solid"
       gradientTransform="matrix(19.851831,0,0,19.851831,-2.4059968,-0.73595854)">
      <stop
         style="stop-color:#66cc66;stop-opacity:1;"
         offset="0"
         id="stop2156" />
    </linearGradient>
    <linearGradient
       id="linearGradient2152"
       osb:paint="solid"
       gradientTransform="matrix(3.9279549,0,0,3.9279549,-0.9425125,-0.77331961)">
      <stop
         style="stop-color:#f5993d;stop-opacity:1;"
         offset="0"
         id="stop2150" />
    </linearGradient>
    <linearGradient
       id="linearGradient2144"
       osb:paint="solid"
       gradientTransform="scale(0.74999997)">
      <stop
         style="stop-color:#f53d3d;stop-opacity:1;"
         offset="0"
         id="stop2142" />
    </linearGradient>
  </defs>
  <sodipodi:namedview
     id="base"
     pagecolor="#4c4c4c"
     bordercolor="#666666"
     borderopacity="1.0"
     inkscape:pageopacity="0"
     inkscape:pageshadow="2"
     inkscape:zoom="64"
     inkscape:cx="15.612691"
     inkscape:cy="20.00612"
     inkscape:document-units="mm"
     inkscape:current-layer="layer1"
     inkscape:document-rotation="0"
     showgrid="false"
     units="px"
     inkscape:pagecheckerboard="false"
     showguides="true"
     inkscape:guide-bbox="true"
     inkscape:snap-bbox="true"
     inkscape:snap-bbox-edge-midpoints="true"
     inkscape:bbox-paths="false"
     inkscape:bbox-nodes="false"
     inkscape:snap-bbox-midpoints="false"
     inkscape:snap-smooth-nodes="true"
     inkscape:window-width="1854"
     inkscape:window-height="1057"
     inkscape:window-x="-8"
     inkscape:window-y="-8"
     inkscape:window-maximized="1"
     inkscape:snap-global="true">
    <sodipodi:guide
       position="0,12.7"
       orientation="0,48"
       id="guide2219" />
    <sodipodi:guide
       position="12.7,12.7"
       orientation="48,0"
       id="guide2221" />
    <sodipodi:guide
       position="12.7,0"
       orientation="0,-48"
       id="guide2223" />
    <sodipodi:guide
       position="0,0"
       orientation="-48,0"
       id="guide2225" />
  </sodipodi:namedview>
  <metadata
     id="metadata1519">
    <rdf:RDF>
      <cc:Work
         rdf:about="">
        <dc:format>image/svg+xml</dc:format>
        <dc:type
           rdf:resource="http://purl.org/dc/dcmitype/StillImage" />
        <dc:title></dc:title>
      </cc:Work>
    </rdf:RDF>
  </metadata>
  <g
     inkscape:label="Base Shape"
     id="layer1">
    <path
       d="M 11.323122,4.1673856 A 4.9731227,4.9731227 0 0 1 6.3500006,9.1405081 4.9731227,4.9731227 0 0 1 1.3768779,4.1673856 4.9731227,4.9731227 0 0 1 6.3500006,-0.80573714 4.9731227,4.9731227 0 0 1 11.323122,4.1673856 Z"
       style="display:inline;opacity:0;fill:none;fill-opacity:1;stroke-width:0.0985812"
       id="path2105"
       inkscape:label="Centre Circle" />
    <path
       d="m 6.4537127,-0.02609944 c -0.097753,-0.0028651 -0.195617,-0.0019074 -0.2933716,0.0034381 C 4.7195653,0.03203113 3.3880465,1.0644484 2.9647692,2.4406279 2.8309304,2.8563861 2.7873895,3.2923731 2.8106343,3.7252741 2.9706621,5.85707 5.3661751,5.604671 5.3661751,3.7974708 a 0.98362366,0.98362366 0 0 1 0.00744,-0.113452 C 5.3999069,3.407414 5.5198837,3.2184644 5.6687142,3.088108 A 0.98362366,0.98362366 0 0 1 6.3500011,2.8136451 0.98362366,0.98362366 0 0 1 6.544818,2.8331264 c 0.00231,4.665e-4 0.00456,0.00122 0.00687,0.00171 a 0.98362366,0.98362366 0 0 1 0.1741892,0.053861 c 0.0042,0.00173 0.00843,0.00335 0.012605,0.00516 a 0.98362366,0.98362366 0 0 1 0.1575716,0.085376 c 0.00126,8.508e-4 0.00272,0.00144 0.00401,0.00228 a 0.98362366,0.98362366 0 0 1 0.00288,0.00228 0.98362366,0.98362366 0 0 1 0.1421018,0.1174634 c 1.901e-4,1.897e-4 3.814e-4,3.814e-4 5.868e-4,5.866e-4 a 0.98362366,0.98362366 0 0 1 5.866e-4,0.00115 0.98362366,0.98362366 0 0 1 0.1180365,0.1421019 c 5.279e-4,7.92e-4 0.00118,0.00151 0.00172,0.00228 a 0.98362366,0.98362366 0 0 1 0.00172,0.00345 0.98362366,0.98362366 0 0 1 0.086521,0.1592914 c 0.00138,0.00323 0.00267,0.00649 0.00401,0.00974 a 0.98362366,0.98362366 0 0 1 0.054435,0.1759082 c 2.503e-4,0.0012 9.094e-4,0.00223 0.00115,0.00345 a 0.98362366,0.98362366 0 0 1 0,0.00228 0.98362366,0.98362366 0 0 1 0.020056,0.1959629 0.98362366,0.98362366 0 0 1 -0.00345,0.073344 C 7.2943247,5.8844747 5.8396594,5.9683905 5.261376,8.0060886 5.480113,8.3022714 5.6859887,8.6079462 5.8641629,8.9331883 6.0478913,9.2597625 6.2144022,9.5967822 6.3489136,9.9468096 6.8233401,8.6926575 7.6839643,7.6453035 8.5360211,6.6303366 9.1908486,5.8534304 9.8072678,4.957433 9.8825506,3.9126395 10.028218,2.6439185 9.4330171,1.3258382 8.3755251,0.60705592 7.8143435,0.21290941 7.1379814,-0.00604706 6.4537127,-0.02609944 Z M 2.8106343,3.7252741 c -0.00205,-0.027301 -0.00557,-0.053281 -0.00687,-0.081365 0.00275,0.1039719 0.010444,0.2062021 0.020628,0.3065505 -0.00828,-0.074863 -0.00972,-0.1500102 -0.013749,-0.2251856 z m 0.022345,0.3059775 c 0.0093,0.070325 0.020656,0.1399769 0.033807,0.2097146 -0.012395,-0.068682 -0.024996,-0.137565 -0.033807,-0.2097146 z m 0.079072,0.4182834 c 0.014944,0.060736 0.03028,0.1211021 0.048131,0.1810651 -0.017786,-0.0599 -0.033249,-0.1203884 -0.048131,-0.1810651 z m 0.1220471,0.4005208 c 0.019874,0.054668 0.038432,0.1095756 0.060737,0.1633026 -0.02224,-0.053697 -0.040984,-0.1086829 -0.060737,-0.1633026 z M 3.2014117,5.241982 c 0.02372,0.04802 0.04534,0.096833 0.071052,0.1438208 C 3.246785,5.3388441 3.2250894,5.2899791 3.2014117,5.241982 Z M 3.4827522,5.7290244 C 3.6057519,5.9103978 3.7365764,6.0858455 3.8700945,6.2596143 3.7366941,6.0858716 3.6056979,5.9102981 3.4827522,5.7290244 Z m 0.521995,0.7030602 c 0.067756,0.085821 0.136172,0.1711823 0.205131,0.2561271 C 4.1409378,6.6032337 4.0724743,6.51793 4.0047472,6.4320846 Z"
       inkscape:label="Base Shape"
       style="display:inline;fill:#ffffff;fill-opacity:1;stroke-width:0.0850766"
       clip-path="none"
       id="path1475" />
    <path
       inkscape:label="Centre Circle"
       id="path2264-1"
       style="display:none;fill:#5d5d5d;fill-opacity:0.0282258;stroke-width:0.019498"
       d="M 7.3336247,3.797325 A 0.98362375,0.98362375 0 0 1 6.3500011,4.7809483 0.98362375,0.98362375 0 0 1 5.3663778,3.797325 0.98362375,0.98362375 0 0 1 6.3500011,2.8137011 0.98362375,0.98362375 0 0 1 7.3336247,3.797325 Z" />
    <path
       d="m 6.544818,2.8331267 0.00687,0.00171 z m 0.1810654,0.05558 0.012605,0.00516 z M 5.6687144,3.088108 C 5.4946462,3.2364341 5.3918668,3.4575386 5.3736241,3.6840188 5.3989797,3.459099 5.5051933,3.2446033 5.6687144,3.088108 Z m 1.5854667,0.322021 0.00401,0.00974 z M 2.8037583,3.6439094 C 2.8138676,4.4954357 3.1453401,5.3195967 3.6644751,5.9872926 4.1692331,6.6816204 4.7503041,7.3164991 5.2613888,8.006152 5.4505418,7.2875285 5.8639423,6.6539438 6.3526449,6.1032876 6.7593773,5.6410572 7.1489751,5.125801 7.2630063,4.5055393 7.3065724,4.2968966 7.3266366,4.0838168 7.3304546,3.8708638 7.3056585,4.4622485 6.6696618,4.9161426 6.102489,4.7491262 5.6628037,4.7057155 5.3415507,4.0843193 5.3657271,3.8400774 5.3711031,4.4006769 5.0485633,4.9861403 4.4995527,5.1718394 4.0005439,5.3617568 3.4025294,5.1475021 3.1179429,4.7003673 2.9068383,4.3912383 2.821047,4.0132803 2.8037583,3.6439094 Z"
       inkscape:label="Dark Region"
       style="display:inline;fill:#ffffff;fill-opacity:0.3;stroke-width:0.019498"
       id="path2156" />
    <circle
       r="0.83589876"
       cy="11.864101"
       cx="6.3499999"
       id="path2165"
       style="opacity:1;fill:#ffffff;fill-opacity:1;stroke:none;stroke-width:0.242872;stroke-miterlimit:4;stroke-dasharray:none" />
  </g>
</svg>
