<svg xmlns="http://www.w3.org/2000/svg" style="display:none">
  <symbol id="add" viewBox="0 -960 960 960"><path d="M450-450H200v-60h250v-250h60v250h250v60H510v250h-60v-250Z"/></symbol>
  <symbol id="add_location" viewBox="0 -960 960 960"><path d="M450-410h60v-120h120v-60H510v-120h-60v120H330v60h120v120Zm30 251q133-121 196.5-219.5T740-552q0-117.79-75.5-192.9Q589-820 480-820t-184.5 75.1Q220-669.79 220-552q0 75 65 173.5T480-159Zm0 79Q319-217 239.5-334.5T160-552q0-150 96.5-239T480-880q127 0 223.5 89T800-552q0 100-79.5 217.5T480-80Zm0-480Z"/></symbol>
  <symbol id="arrow_back" viewBox="0 -960 960 960"><path d="m274-450 248 248-42 42-320-320 320-320 42 42-248 248h526v60H274Z"/></symbol>
  <symbol id="arrow_downward" viewBox="0 -960 960 960"><path d="M450-800v526L202-522l-42 42 320 320 320-320-42-42-248 248v-526h-60Z"/></symbol>
  <symbol id="bookmarks" viewBox="0 -960 960 960"><path d="M160-80v-581q0-24.75 17.63-42.38Q195.25-721 220-721h360q24.75 0 42.38 17.62Q640-685.75 640-661v581L400-199 160-80Zm60-97 180-89 180 89v-484H220v484Zm520-62v-582H284v-60h456q24.75 0 42.38 17.62Q800-845.75 800-821v582h-60ZM220-661h360-360Z"/></symbol>
  <symbol id="check" viewBox="0 -960 960 960"><path d="M378-246 154-470l43-43 181 181 384-384 43 43-427 427Z"/></symbol>
  <symbol id="close" viewBox="0 -960 960 960"><path d="m249-207-42-42 231-231-231-231 42-42 231 231 231-231 42 42-231 231 231 231-42 42-231-231-231 231Z"/></symbol>
  <symbol id="construction" viewBox="0 -960 960 960"><path d="M768-120 517-371l57-57 251 251-57 57Zm-581 0-57-57 290-290-107-107-23 23-44-44v85l-24 24-122-122 24-24h86l-48-48 131-131q17-17 37-23t44-6q24 0 44 8.5t37 25.5L348-699l48 48-24 24 104 104 122-122q-8-13-12.5-30t-4.5-36q0-53 38.5-91.5T711-841q15 0 25.5 3t17.5 8l-85 85 75 75 85-85q5 8 8.5 19.5T841-709q0 53-38.5 91.5T711-579q-18 0-31-2.5t-24-7.5L187-120Z"/></symbol>
  <symbol id="content_copy" viewBox="0 -960 960 960"><path d="M300-200q-24 0-42-18t-18-42v-560q0-24 18-42t42-18h440q24 0 42 18t18 42v560q0 24-18 42t-42 18H300Zm0-60h440v-560H300v560ZM180-80q-24 0-42-18t-18-42v-620h60v620h500v60H180Zm120-180v-560 560Z"/></symbol>
  <symbol id="delete" viewBox="0 -960 960 960"><path d="M261-120q-24.75 0-42.37-17.63Q201-155.25 201-180v-570h-41v-60h188v-30h264v30h188v60h-41v570q0 24-18 42t-42 18H261Zm438-630H261v570h438v-570ZM367-266h60v-399h-60v399Zm166 0h60v-399h-60v399ZM261-750v570-570Z"/></symbol>
  <symbol id="download" viewBox="0 -960 960 960"><path d="M480-313 287-506l43-43 120 120v-371h60v371l120-120 43 43-193 193ZM220-160q-24 0-42-18t-18-42v-143h60v143h520v-143h60v143q0 24-18 42t-42 18H220Z"/></symbol>
  <symbol id="edit" viewBox="0 -960 960 960"><path d="M180-180h44l472-471-44-44-472 471v44Zm-60 60v-128l575-574q8-8 19-12.5t23-4.5q11 0 22 4.5t20 12.5l44 44q9 9 13 20t4 22q0 11-4.5 22.5T823-694L248-120H120Zm659-617-41-41 41 41Zm-105 64-22-22 44 44-22-22Z"/></symbol>
  <symbol id="expand_more" viewBox="0 -960 960 960"><path d="M480-344 240-584l43-43 197 197 197-197 43 43-240 240Z"/></symbol>
  <symbol id="explore" viewBox="0 -960 960 960"><path d="m303-303 270-83 83-270-270 83-83 270Zm176.76-137q-16.76 0-28.26-11.74-11.5-11.73-11.5-28.5 0-16.76 11.74-28.26 11.73-11.5 28.5-11.5 16.76 0 28.26 11.74 11.5 11.73 11.5 28.5 0 16.76-11.74 28.26-11.73 11.5-28.5 11.5Zm.51 360q-82.74 0-155.5-31.5Q252-143 197.5-197.5t-86-127.34Q80-397.68 80-480.5t31.5-155.66Q143-709 197.5-763t127.34-85.5Q397.68-880 480.5-880t155.66 31.5Q709-817 763-763t85.5 127Q880-563 880-480.27q0 82.74-31.5 155.5Q817-252 763-197.68q-54 54.31-127 86Q563-80 480.27-80Zm.22-60Q622-140 721-239.49q99-99.48 99-241Q820-622 721-721t-240.51-99q-141.52 0-241 99Q140-622 140-480.49q0 141.52 99.49 241 99.48 99.49 241 99.49ZM480-480Z"/></symbol>
  <symbol id="history" viewBox="0 -960 960 960"><path d="M477-120q-149 0-253-105.5T120-481h60q0 125 86 213t211 88q127 0 215-89t88-216q0-124-89-209.5T477-780q-68 0-127.5 31T246-667h105v60H142v-208h60v106q52-61 123.5-96T477-840q75 0 141 28t115.5 76.5Q783-687 811.5-622T840-482q0 75-28.5 141t-78 115Q684-177 618-148.5T477-120Zm128-197L451-469v-214h60v189l137 134-43 43Z"/></symbol>
  <symbol id="location_on" viewBox="0 -960 960 960"><path d="M529.5-510.5Q550-531 550-560t-20.5-49.5Q509-630 480-630t-49.5 20.5Q410-589 410-560t20.5 49.5Q451-490 480-490t49.5-20.5ZM480-159q133-121 196.5-219.5T740-552q0-118-75.5-193T480-820q-109 0-184.5 75T220-552q0 75 65 173.5T480-159Zm0 79Q319-217 239.5-334.5T160-552q0-150 96.5-239T480-880q127 0 223.5 89T800-552q0 100-79.5 217.5T480-80Zm0-480Z"/></symbol>
  <symbol id="map" viewBox="0 -960 960 960"><path d="m612-120-263-93-179 71q-17 9-33.5-1T120-173v-558q0-13 7.5-23t19.5-15l202-71 263 92 178-71q17-8 33.5 1.5T840-788v565q0 11-7.5 19T814-192l-202 72Zm-34-75v-505l-196-66v505l196 66Zm60 0 142-47v-512l-142 54v505Zm-458-12 142-54v-505l-142 47v512Zm458-493v505-505Zm-316-66v505-505Z"/></symbol>
  <symbol id="my_location" viewBox="0 -960 960 960"><path d="M450-42v-75q-137-14-228-105T117-450H42v-60h75q14-137 105-228t228-105v-75h60v75q137 14 228 105t105 228h75v60h-75q-14 137-105 228T510-117v75h-60Zm244.5-223.5Q784-355 784-480t-89.5-214.5Q605-784 480-784t-214.5 89.5Q176-605 176-480t89.5 214.5Q355-176 480-176t214.5-89.5Zm-321-108Q330-417 330-480t43.5-106.5Q417-630 480-630t106.5 43.5Q630-543 630-480t-43.5 106.5Q543-330 480-330t-106.5-43.5ZM544-416q26-26 26-64t-26-64q-26-26-64-26t-64 26q-26 26-26 64t26 64q26 26 64 26t64-26Zm-64-64Z"/></symbol>
  <symbol id="near_me" viewBox="0 -960 960 960"><path d="M527-120 413-413 120-527v-43l720-270-270 720h-43Zm18-114 192-503-502 192 224 86 86 225Zm-86-225Z"/></symbol>
  <symbol id="open_in_new" viewBox="0 -960 960 960"><path d="M180-120q-24 0-42-18t-18-42v-600q0-24 18-42t42-18h279v60H180v600h600v-279h60v279q0 24-18 42t-42 18H180Zm202-219-42-43 398-398H519v-60h321v321h-60v-218L382-339Z"/></symbol>
  <symbol id="palette" viewBox="0 -960 960 960"><path d="M480-80q-82 0-155-31.5t-127.5-86Q143-252 111.5-325T80-480q0-85 32-158t87.5-127q55.5-54 130-84.5T489-880q79 0 150 26.5T763.5-780q53.5 47 85 111.5T880-527q0 108-63 170.5T650-294h-75q-18 0-31 14t-13 31q0 27 14.5 46t14.5 44q0 38-21 58.5T480-80Zm0-400Zm-198 11q15-15 15-35t-15-35q-15-15-35-15t-35 15q-15 15-15 35t15 35q15 15 35 15t35-15Zm126-170q15-15 15-35t-15-35q-15-15-35-15t-35 15q-15 15-15 35t15 35q15 15 35 15t35-15Zm214 0q15-15 15-35t-15-35q-15-15-35-15t-35 15q-15 15-15 35t15 35q15 15 35 15t35-15Zm131 170q15-15 15-35t-15-35q-15-15-35-15t-35 15q-15 15-15 35t15 35q15 15 35 15t35-15ZM480-140q11 0 15.5-4.5T500-159q0-14-14.5-26T471-238q0-46 30-81t76-35h73q76 0 123-44.5T820-527q0-132-100-212.5T489-820q-146 0-247.5 98.5T140-480q0 141 99.5 240.5T480-140Z"/></symbol>
  <symbol id="route" viewBox="0 -960 960 960"><path d="M245-165.53Q200-211.06 200-275v-349q-35-13-57.5-41.26-22.5-28.27-22.5-64.41Q120-776 152.5-808t78-32q45.5 0 77.5 32.14t32 78.05q0 35.81-22.5 64.31T260-624v349q0 39.19 27.5 67.09Q315-180 355.5-180t67.5-27.91q27-27.9 27-67.09v-410q0-65 45-110t110-45q65 0 110 45t45 110v349q35 13 57.5 41.36Q840-266.27 840-230q0 45-32.08 77.5Q775.83-120 730-120q-45 0-77.5-32.5T620-230q0-36.3 22.5-65.15Q665-324 700-336v-349q0-40-27.5-67.5T605-780q-40 0-67.5 27.5T510-685v410q0 63.94-45 109.47T355-120q-65 0-110-45.53ZM230.5-680q20.5 0 35-15t14.5-35.5q0-20.5-14.37-35Q251.25-780 230-780q-20 0-35 14.37-15 14.38-15 35.63 0 20 15 35t35.5 15Zm500 500q20.5 0 35-15t14.5-35.5q0-20.5-14.37-35Q751.25-280 730-280q-20 0-35 14.37-15 14.38-15 35.63 0 20 15 35t35.5 15ZM230-730Zm500 500Z"/></symbol>
  <symbol id="satellite_alt" viewBox="0 -960 960 960"><path d="M560-32v-60q125 0 212.5-87.32T860-392h60q0 75-28.5 140.5t-77 114q-48.5 48.5-114 77T560-32Zm0-120v-60q69 0 124.5-55.5T740-392h60q0 95-72.5 167.5T560-152ZM222-49q-11.67 0-23.33-4.5Q187-58 179-66L9-236q-8-8-12.5-19.56Q-8-267.11-8-278.67q0-12.33 4.43-23.21Q.87-312.75 9-321l151-151q17-17 42.5-17t42.5 17l64 64 37-37-64-64q-17-17.31-17-42.16Q265-576 282-593l75-75q17.38-17 42.69-17T442-668l64 64 37-37-64-64q-17-17.38-17-42.69T479-790l151-151q8.86-9 19.93-13.5T673-959q12 0 23 4t20 13l170 170q8.87 8.52 12.93 19.75 4.07 11.24 4.07 23.63 0 11.62-5 23.12-5 11.5-13 19.5L734-535q-23 23-42.5 23T649-535l-64-64-37 37 64 64q17 17.38 16.5 42.69T611-413l-74 74q-17.38 17-42.69 17T452-339l-64-64-37 37 64 64q17 17 17 42.5T415-217L264-66q-8.25 8.13-19.12 12.57Q234-49 222-49Zm0-59 54-54-170-170-54 54 170 170Zm97-97 54-54-170-170-54 54 170 170Zm176-176 74-74-170-170-74 74 170 170Zm197-197 54-54-170-170-54 54 170 170Zm97-97 54-54-170-170-54 54 170 170ZM447-503Z"/></symbol>
  <symbol id="schedule" viewBox="0 -960 960 960"><path d="m627-287 45-45-159-160v-201h-60v225l174 181ZM480-80q-82 0-155-31.5t-127.5-86Q143-252 111.5-325T80-480q0-82 31.5-155t86-127.5Q252-817 325-848.5T480-880q82 0 155 31.5t127.5 86Q817-708 848.5-635T880-480q0 82-31.5 155t-86 127.5Q708-143 635-111.5T480-80Zm0-400Zm0 340q140 0 240-100t100-240q0-140-100-240T480-820q-140 0-240 100T140-480q0 140 100 240t240 100Z"/></symbol>
  <symbol id="settings" viewBox="0 -960 960 960"><path d="m388-80-20-126q-19-7-40-19t-37-25l-118 54-93-164 108-79q-2-9-2.5-20.5T185-480q0-9 .5-20.5T188-521L80-600l93-164 118 54q16-13 37-25t40-18l20-127h184l20 126q19 7 40.5 18.5T669-710l118-54 93 164-108 77q2 10 2.5 21.5t.5 21.5q0 10-.5 21t-2.5 21l108 78-93 164-118-54q-16 13-36.5 25.5T592-206L572-80H388Zm48-60h88l14-112q33-8 62.5-25t53.5-41l106 46 40-72-94-69q4-17 6.5-33.5T715-480q0-17-2-33.5t-7-33.5l94-69-40-72-106 46q-23-26-52-43.5T538-708l-14-112h-88l-14 112q-34 7-63.5 24T306-642l-106-46-40 72 94 69q-4 17-6.5 33.5T245-480q0 17 2.5 33.5T254-413l-94 69 40 72 106-46q24 24 53.5 41t62.5 25l14 112Zm44-210q54 0 92-38t38-92q0-54-38-92t-92-38q-54 0-92 38t-38 92q0 54 38 92t92 38Zm0-130Z"/></symbol>
  <symbol id="share" viewBox="0 -960 960 960"><path d="M686-80q-47.5 0-80.75-33.25T572-194q0-8 5-34L278-403q-16.28 17.34-37.64 27.17Q219-366 194-366q-47.5 0-80.75-33T80-480q0-48 33.25-81T194-594q24 0 45 9.3 21 9.29 37 25.7l301-173q-2-8-3.5-16.5T572-766q0-47.5 33.25-80.75T686-880q47.5 0 80.75 33.25T800-766q0 47.5-33.25 80.75T686-652q-23.27 0-43.64-9Q622-670 606-685L302-516q3 8 4.5 17.5t1.5 18q0 8.5-1 16t-3 15.5l303 173q16-15 36.09-23.5 20.1-8.5 43.07-8.5Q734-308 767-274.75T800-194q0 47.5-33.25 80.75T686-80Zm.04-60q22.96 0 38.46-15.54 15.5-15.53 15.5-38.5 0-22.96-15.54-38.46-15.53-15.5-38.5-15.5-22.96 0-38.46 15.54-15.5 15.53-15.5 38.5 0 22.96 15.54 38.46 15.53 15.5 38.5 15.5Zm-492-286q22.96 0 38.46-15.54 15.5-15.53 15.5-38.5 0-22.96-15.54-38.46-15.53-15.5-38.5-15.5-22.96 0-38.46 15.54-15.5 15.53-15.5 38.5 0 22.96 15.54 38.46 15.53 15.5 38.5 15.5ZM724.5-727.54q15.5-15.53 15.5-38.5 0-22.96-15.54-38.46-15.53-15.5-38.5-15.5-22.96 0-38.46 15.54-15.5 15.53-15.5 38.5 0 22.96 15.54 38.46 15.53 15.5 38.5 15.5 22.96 0 38.46-15.54ZM686-194ZM194-480Zm492-286Z"/></symbol>
  <symbol id="sort_by_alpha" viewBox="0 -960 960 960"><path d="m80-280 162-400h63l161 400h-63l-38-99H181l-38 99H80Zm121-151h144l-70-185h-4l-70 185Zm347 151v-62l233-286H566v-52h272v63L607-332h233v52H548ZM384-784l96-96 96 96H384Zm96 704-96-96h192l-96 96Z"/></symbol>
  <symbol id="straighten" viewBox="0 -960 960 960"><path d="M140-240q-24 0-42-18t-18-42v-360q0-23 18-41.5t42-18.5h680q24 0 42 18.5t18 41.5v360q0 24-18 42t-42 18H140Zm0-60h680v-360H690v180h-60v-180H510v180h-60v-180H330v180h-60v-180H140v360Zm130-180h60-60Zm180 0h60-60Zm180 0h60-60Zm-150 0Z"/></symbol>
  <symbol id="toggle_off" viewBox="0 -960 960 960"><path d="M280-240q-100 0-170-70T40-480q0-100 70-170t170-70h400q100 0 170 70t70 170q0 100-70 170t-170 70H280Zm0-60h400q75 0 127.5-52.5T860-480q0-75-52.5-127.5T680-660H280q-75 0-127.5 52.5T100-480q0 75 52.5 127.5T280-300Zm70.5-108.5Q380-438 380-480t-29.5-71.5Q321-581 279-581t-71.5 29.5Q178-522 178-480t29.5 71.5Q237-379 279-379t71.5-29.5ZM480-480Z"/></symbol>
  <symbol id="toggle_on" viewBox="0 -960 960 960"><path d="M280-240q-100 0-170-70T40-480q0-100 70-170t170-70h400q100 0 170 70t70 170q0 100-70 170t-170 70H280Zm0-60h400q75 0 127.5-52.5T860-480q0-75-52.5-127.5T680-660H280q-75 0-127.5 52.5T100-480q0 75 52.5 127.5T280-300Zm472.5-108.5Q782-438 782-480t-29.5-71.5Q723-581 681-581t-71.5 29.5Q580-522 580-480t29.5 71.5Q639-379 681-379t71.5-29.5ZM480-480Z"/></symbol>
  <symbol id="undo" viewBox="0 -960 960 960"><path d="M259-200v-60h310q70 0 120.5-46.5T740-422q0-69-50.5-115.5T569-584H274l114 114-42 42-186-186 186-186 42 42-114 114h294q95 0 163.5 64T800-422q0 94-68.5 158T568-200H259Z"/></symbol>
</svg>
