<?xml version="1.0" encoding="UTF-8" standalone="no"?>
<svg
   xmlns:dc="http://purl.org/dc/elements/1.1/"
   xmlns:cc="http://creativecommons.org/ns#"
   xmlns:rdf="http://www.w3.org/1999/02/22-rdf-syntax-ns#"
   xmlns:svg="http://www.w3.org/2000/svg"
   xmlns="http://www.w3.org/2000/svg"
   xmlns:sodipodi="http://sodipodi.sourceforge.net/DTD/sodipodi-0.dtd"
   xmlns:inkscape="http://www.inkscape.org/namespaces/inkscape"
   inkscape:version="1.0 (4035a4fb49, 2020-05-01)"
   sodipodi:docname="area.svg"
   id="svg8"
   version="1.1"
   viewBox="0 0 25.399999 25.399999"
   height="96"
   width="96">
  <defs
     id="defs2" />
  <sodipodi:namedview
     inkscape:window-maximized="1"
     inkscape:window-y="-8"
     inkscape:window-x="-8"
     inkscape:window-height="1057"
     inkscape:window-width="1854"
     inkscape:bbox-nodes="true"
     inkscape:snap-bbox-midpoints="true"
     inkscape:snap-bbox="true"
     inkscape:pagecheckerboard="false"
     units="px"
     showgrid="false"
     inkscape:document-rotation="0"
     inkscape:current-layer="g2851"
     inkscape:document-units="mm"
     inkscape:cy="53.133532"
     inkscape:cx="36.331006"
     inkscape:zoom="7.9195959"
     inkscape:pageshadow="2"
     inkscape:pageopacity="0"
     borderopacity="1.0"
     bordercolor="#666666"
     pagecolor="#000000"
     id="base">
    <sodipodi:guide
       id="guide2063"
       orientation="0,96"
       position="0,25.399999" />
    <sodipodi:guide
       id="guide2065"
       orientation="96,0"
       position="25.399999,25.399999" />
    <sodipodi:guide
       id="guide2067"
       orientation="0,-96"
       position="25.399999,0" />
    <sodipodi:guide
       id="guide2069"
       orientation="-96,0"
       position="0,0" />
  </sodipodi:namedview>
  <metadata
     id="metadata5">
    <rdf:RDF>
      <cc:Work
         rdf:about="">
        <dc:format>image/svg+xml</dc:format>
        <dc:type
           rdf:resource="http://purl.org/dc/dcmitype/StillImage" />
        <dc:title></dc:title>
      </cc:Work>
    </rdf:RDF>
  </metadata>
  <g
     id="layer1"
     inkscape:groupmode="layer"
     inkscape:label="Layer 1">
    <g
       style="opacity:1"
       inkscape:transform-center-y="-1.0038086"
       inkscape:transform-center-x="1.0038077"
       id="g2851">
      <path
         transform="scale(0.26458333)"
         d="m 58.365234,29.439453 -3.560546,3.558594 c -1.085921,1.085336 -2.721388,1.284545 -4.027344,0.628906 l -8.69336,8.693359 -8.689453,8.689454 c 0.692682,1.314657 0.504714,2.982224 -0.597656,4.083984 l -3.560547,3.558594 0.246094,0.246094 18.359375,4.917968 14.753906,3.953125 -0.181641,-0.18164 c -1.353958,-1.353216 -1.353956,-3.57061 0,-4.923829 0.676522,-0.67614 1.571595,-1.021484 2.460938,-1.021484 0.889341,0 1.78675,0.343758 2.464844,1.021484 L 67.529297,62.853516 63.572266,48.078125 58.65625,29.730469 Z"
         inkscape:label="triangle"
         style="color:#000000;font-style:normal;font-variant:normal;font-weight:normal;font-stretch:normal;font-size:medium;line-height:normal;font-family:sans-serif;font-variant-ligatures:normal;font-variant-position:normal;font-variant-caps:normal;font-variant-numeric:normal;font-variant-alternates:normal;font-variant-east-asian:normal;font-feature-settings:normal;font-variation-settings:normal;text-indent:0;text-align:start;text-decoration:none;text-decoration-line:none;text-decoration-style:solid;text-decoration-color:#000000;letter-spacing:normal;word-spacing:normal;text-transform:none;writing-mode:lr-tb;direction:ltr;text-orientation:mixed;dominant-baseline:auto;baseline-shift:baseline;text-anchor:start;white-space:normal;shape-padding:0;shape-margin:0;inline-size:0;clip-rule:nonzero;display:inline;overflow:visible;visibility:visible;isolation:auto;mix-blend-mode:normal;color-interpolation:sRGB;color-interpolation-filters:linearRGB;solid-color:#000000;solid-opacity:1;vector-effect:none;fill:#ffffff;fill-opacity:0.05;fill-rule:nonzero;stroke:none;stroke-width:3.35622;stroke-linecap:butt;stroke-linejoin:round;stroke-miterlimit:4;stroke-dasharray:none;stroke-dashoffset:0;stroke-opacity:1;color-rendering:auto;image-rendering:auto;shape-rendering:auto;text-rendering:auto;enable-background:accumulate;stop-color:#000000;stop-opacity:1"
         id="path2853" />
      <path
         transform="scale(0.26458333)"
         d="m 58.65625,29.730469 4.916016,18.347656 3.957031,14.775391 3.369141,3.36914 0.802734,-0.802734 -4.88086,-18.205078 -3.591796,-13.410156 c -0.476293,-0.166745 -0.925828,-0.42799 -1.304688,-0.806641 z m -9.769531,1.041015 -9.179688,9.179688 -9.21875,9.21875 c 0.840535,0.03693 1.670846,0.36261 2.308594,1 0.251595,0.251457 0.439565,0.539797 0.597656,0.839844 l 8.689453,-8.689454 8.69336,-8.693359 c -0.322328,-0.16182 -0.630416,-0.361031 -0.898438,-0.628906 -0.617403,-0.617065 -0.937854,-1.413993 -0.992187,-2.226563 z m -19.404297,28.126954 3.314453,3.310546 c 0.368233,0.368027 0.626982,0.802575 0.794922,1.263672 l 13.378906,3.583985 18.210938,4.880859 0.791015,-0.791016 -3.376953,-3.376953 -14.753906,-3.953125 z"
         inkscape:label="triangle stroke"
         style="color:#000000;font-style:normal;font-variant:normal;font-weight:normal;font-stretch:normal;font-size:medium;line-height:normal;font-family:sans-serif;font-variant-ligatures:normal;font-variant-position:normal;font-variant-caps:normal;font-variant-numeric:normal;font-variant-alternates:normal;font-variant-east-asian:normal;font-feature-settings:normal;font-variation-settings:normal;text-indent:0;text-align:start;text-decoration:none;text-decoration-line:none;text-decoration-style:solid;text-decoration-color:#000000;letter-spacing:normal;word-spacing:normal;text-transform:none;writing-mode:lr-tb;direction:ltr;text-orientation:mixed;dominant-baseline:auto;baseline-shift:baseline;text-anchor:start;white-space:normal;shape-padding:0;shape-margin:0;inline-size:0;clip-rule:nonzero;display:inline;overflow:visible;visibility:visible;isolation:auto;mix-blend-mode:normal;color-interpolation:sRGB;color-interpolation-filters:linearRGB;solid-color:#000000;solid-opacity:1;vector-effect:none;fill:#ffffff;fill-opacity:0.15000001;fill-rule:nonzero;stroke:none;stroke-width:3.35622;stroke-linecap:butt;stroke-linejoin:round;stroke-miterlimit:4;stroke-dasharray:none;stroke-dashoffset:0;stroke-opacity:1;color-rendering:auto;image-rendering:auto;shape-rendering:auto;text-rendering:auto;enable-background:accumulate;stop-color:#000000;stop-opacity:1"
         id="path2855" />
    </g>
    <path
       style="color:#000000;font-style:normal;font-variant:normal;font-weight:normal;font-stretch:normal;font-size:medium;line-height:normal;font-family:sans-serif;font-variant-ligatures:normal;font-variant-position:normal;font-variant-caps:normal;font-variant-numeric:normal;font-variant-alternates:normal;font-variant-east-asian:normal;font-feature-settings:normal;font-variation-settings:normal;text-indent:0;text-align:start;text-decoration:none;text-decoration-line:none;text-decoration-style:solid;text-decoration-color:#000000;letter-spacing:normal;word-spacing:normal;text-transform:none;writing-mode:lr-tb;direction:ltr;text-orientation:mixed;dominant-baseline:auto;baseline-shift:baseline;text-anchor:start;white-space:normal;shape-padding:0;shape-margin:0;inline-size:0;clip-rule:nonzero;display:inline;overflow:visible;visibility:visible;isolation:auto;mix-blend-mode:normal;color-interpolation:sRGB;color-interpolation-filters:linearRGB;solid-color:#000000;solid-opacity:1;vector-effect:none;fill:#fdfdfd;fill-opacity:0.15000001;fill-rule:nonzero;stroke:none;stroke-width:0.461963;stroke-linecap:butt;stroke-linejoin:miter;stroke-miterlimit:4;stroke-dasharray:none;stroke-dashoffset:0;stroke-opacity:1;color-rendering:auto;image-rendering:auto;shape-rendering:auto;text-rendering:auto;enable-background:accumulate;stop-color:#000000"
       d="m 13.848767,4.203361 c -0.176553,0 -0.353057,0.067361 -0.488342,0.2025716 -0.270567,0.2704185 -0.270567,0.7057491 0,0.9761678 l 1.105358,1.1043253 -1.105358,1.104842 c -0.270567,0.270419 -0.270567,0.7057494 0,0.9761678 0.270569,0.2704206 0.706118,0.2704206 0.976684,0 l 1.105359,-1.104842 1.104842,1.104842 c 0.27057,0.2704206 0.706116,0.2704206 0.976685,0 0.270568,-0.2704184 0.270568,-0.7057488 0,-0.9761678 l -1.104842,-1.104842 1.104842,-1.1043253 c 0.270568,-0.2704187 0.270568,-0.7057493 0,-0.9761678 -0.270569,-0.2704187 -0.706115,-0.2704187 -0.976685,0 L 15.442468,5.5102579 14.337109,4.4059326 C 14.201826,4.2707226 14.02532,4.203361 13.848767,4.203361 Z m -9.0103028,9.03149 c -0.176553,0 -0.3525414,0.06736 -0.4878255,0.202571 -0.2705677,0.27042 -0.2705682,0.705749 0,0.976168 l 1.1048423,1.104842 -1.1048423,1.104326 c -0.2705682,0.270417 -0.2705682,0.70575 0,0.976168 0.2705679,0.270419 0.7061165,0.270419 0.9766847,0 L 6.4321655,16.4946 7.5375243,17.598926 c 0.2705687,0.270419 0.7061173,0.270419 0.9766847,0 0.2705687,-0.270418 0.2705687,-0.705751 0,-0.976168 L 7.40885,15.518432 8.514209,14.41359 c 0.2705687,-0.270419 0.2705687,-0.705748 0,-0.976168 -0.2705674,-0.270415 -0.706116,-0.270415 -0.9766847,0 L 6.4321655,14.542265 5.3273234,13.437422 C 5.1920391,13.302213 5.0150175,13.234851 4.8384642,13.234851 Z m 12.3263798,3.305741 c -0.176552,0 -0.352541,0.06736 -0.487826,0.202572 -0.270567,0.270419 -0.270567,0.70575 0,0.976168 l 1.104842,1.104842 -1.104842,1.104325 c -0.270567,0.270419 -0.270567,0.705749 0,0.976168 0.27057,0.27042 0.706118,0.27042 0.976685,0 l 1.104842,-1.104325 1.104842,1.104325 c 0.27057,0.27042 0.706116,0.27042 0.976684,0 0.270568,-0.270419 0.270568,-0.705749 0,-0.976168 l -1.104842,-1.104325 1.104842,-1.104842 c 0.270568,-0.270418 0.270568,-0.705749 0,-0.976168 -0.270568,-0.270419 -0.706114,-0.270419 -0.976684,0 l -1.104842,1.104842 -1.104842,-1.104842 c -0.135284,-0.135211 -0.312305,-0.202572 -0.488859,-0.202572 z"
       id="path2863" />
  </g>
</svg>
