<?xml version="1.0" encoding="UTF-8" standalone="no"?>
<svg
   xmlns:dc="http://purl.org/dc/elements/1.1/"
   xmlns:cc="http://creativecommons.org/ns#"
   xmlns:rdf="http://www.w3.org/1999/02/22-rdf-syntax-ns#"
   xmlns:svg="http://www.w3.org/2000/svg"
   xmlns="http://www.w3.org/2000/svg"
   xmlns:sodipodi="http://sodipodi.sourceforge.net/DTD/sodipodi-0.dtd"
   xmlns:inkscape="http://www.inkscape.org/namespaces/inkscape"
   inkscape:version="1.0 (4035a4fb49, 2020-05-01)"
   sodipodi:docname="map_reticle.svg"
   id="svg887"
   version="1.1"
   viewBox="0 0 6.35 6.35"
   height="24"
   width="24">
  <defs
     id="defs881" />
  <sodipodi:namedview
     inkscape:window-maximized="1"
     inkscape:window-y="-8"
     inkscape:window-x="-8"
     inkscape:window-height="1057"
     inkscape:window-width="1854"
     inkscape:bbox-nodes="true"
     inkscape:snap-bbox="true"
     inkscape:guide-bbox="true"
     showguides="true"
     inkscape:pagecheckerboard="true"
     units="px"
     showgrid="false"
     inkscape:document-rotation="0"
     inkscape:current-layer="layer1"
     inkscape:document-units="mm"
     inkscape:cy="12.874291"
     inkscape:cx="11.723095"
     inkscape:zoom="22.627417"
     inkscape:pageshadow="2"
     inkscape:pageopacity="0.0"
     borderopacity="1.0"
     bordercolor="#666666"
     pagecolor="#ffffff"
     id="base">
    <sodipodi:guide
       id="guide1521"
       orientation="0,24"
       position="0,6.35" />
    <sodipodi:guide
       id="guide1523"
       orientation="24,0"
       position="6.35,6.35" />
    <sodipodi:guide
       id="guide1525"
       orientation="0,-24"
       position="6.35,0" />
    <sodipodi:guide
       id="guide1527"
       orientation="-24,0"
       position="0,0" />
  </sodipodi:namedview>
  <metadata
     id="metadata884">
    <rdf:RDF>
      <cc:Work
         rdf:about="">
        <dc:format>image/svg+xml</dc:format>
        <dc:type
           rdf:resource="http://purl.org/dc/dcmitype/StillImage" />
        <dc:title></dc:title>
      </cc:Work>
    </rdf:RDF>
  </metadata>
  <g
     id="layer1"
     inkscape:groupmode="layer"
     inkscape:label="Layer 1">
    <path
       id="rect1540"
       style="display:inline;fill:#f8f8f8;fill-opacity:1;stroke:none;stroke-width:0.0984496;stroke-miterlimit:4;stroke-dasharray:none;stroke-opacity:1"
       d="m 3.175,0.0492248 c -0.2294707,0 -0.4141246,0.18465386 -0.4141246,0.41412454 V 2.7608754 H 3.5891246 V 0.46334934 C 3.5891246,0.23387866 3.4044707,0.0492248 3.175,0.0492248 Z m 0.4141246,2.7116506 v 0.8282492 h 2.297526 c 0.2294708,0 0.4141246,-0.1846539 0.4141246,-0.4141245 0,-0.2294708 -0.1846538,-0.4141247 -0.4141246,-0.4141247 z m 0,0.8282492 H 2.7608754 v 2.297526 c 0,0.2294708 0.1846539,0.4141246 0.4141246,0.4141246 0.2294707,0 0.4141246,-0.1846538 0.4141246,-0.4141246 z m -0.8282492,0 V 2.7608754 H 0.46334934 c -0.2294707,0 -0.41412454,0.1846539 -0.41412454,0.4141247 0,0.2294706 0.18465384,0.4141245 0.41412454,0.4141245 z" />
    <path
       id="path1638"
       d="M 3.1757812,0 C 2.9194874,0 2.7109375,0.20659675 2.7109375,0.46289062 V 2.7109375 H 0.46289062 C 0.20659678,2.7109375 0,2.9194873 0,3.1757812 0,3.432075 0.20659676,3.6386719 0.46289062,3.6386719 H 2.7109375 v 2.2480469 c 0,0.2562939 0.2085499,0.4648437 0.4648437,0.4648437 0.2562939,0 0.4628907,-0.2085498 0.4628907,-0.4648437 V 3.6386719 h 2.2480469 c 0.2562939,0 0.4648437,-0.2065969 0.4648437,-0.4628907 0,-0.2562939 -0.2085498,-0.4648437 -0.4648437,-0.4648437 H 3.6386719 V 0.46289062 C 3.6386719,0.20659675 3.4320751,0 3.1757812,0 Z m 0,0.09960937 c 0.2026476,0 0.3632813,0.16063371 0.3632813,0.36328125 V 2.8105469 H 5.8867188 C 6.0893664,2.8105469 6.25,2.9731336 6.25,3.1757812 6.25,3.3784287 6.0893664,3.5390625 5.8867188,3.5390625 H 3.5390625 V 5.8867188 C 3.5390625,6.0893664 3.3784288,6.25 3.1757812,6.25 2.9731337,6.25 2.8105469,6.0893664 2.8105469,5.8867188 V 3.5390625 H 0.46289062 c -0.20264753,0 -0.36328125,-0.1606338 -0.36328125,-0.3632813 0,-0.2026476 0.1606337,-0.3652343 0.36328125,-0.3652343 H 2.8105469 V 0.46289062 c 0,-0.20264754 0.1625868,-0.36328125 0.3652343,-0.36328125 z"
       style="color:#000000;font-style:normal;font-variant:normal;font-weight:normal;font-stretch:normal;font-size:medium;line-height:normal;font-family:sans-serif;font-variant-ligatures:normal;font-variant-position:normal;font-variant-caps:normal;font-variant-numeric:normal;font-variant-alternates:normal;font-variant-east-asian:normal;font-feature-settings:normal;font-variation-settings:normal;text-indent:0;text-align:start;text-decoration:none;text-decoration-line:none;text-decoration-style:solid;text-decoration-color:#000000;letter-spacing:normal;word-spacing:normal;text-transform:none;writing-mode:lr-tb;direction:ltr;text-orientation:mixed;dominant-baseline:auto;baseline-shift:baseline;text-anchor:start;white-space:normal;shape-padding:0;shape-margin:0;inline-size:0;clip-rule:nonzero;display:inline;overflow:visible;visibility:visible;isolation:auto;mix-blend-mode:normal;color-interpolation:sRGB;color-interpolation-filters:linearRGB;solid-color:#000000;solid-opacity:1;vector-effect:none;fill:#404040;fill-opacity:1;fill-rule:nonzero;stroke:none;stroke-width:0.1;stroke-linecap:butt;stroke-linejoin:miter;stroke-miterlimit:4;stroke-dasharray:none;stroke-dashoffset:0;stroke-opacity:1;color-rendering:auto;image-rendering:auto;shape-rendering:auto;text-rendering:auto;enable-background:accumulate;stop-color:#000000;stop-opacity:1" />
  </g>
</svg>
